<?xml version="1.0" standalone="no"?>
<!DOCTYPE svg PUBLIC "-//W3C//DTD SVG 20010904//EN"
 "http://www.w3.org/TR/2001/REC-SVG-20010904/DTD/svg10.dtd">
<svg version="1.0" xmlns="http://www.w3.org/2000/svg"
 width="500.000000pt" height="500.000000pt" viewBox="0 0 500.000000 500.000000"
 preserveAspectRatio="xMidYMid meet">
<metadata>
Created by potrace 1.14, written by Peter Selinger 2001-2017
</metadata>
<g transform="translate(0.000000,500.000000) scale(0.100000,-0.100000)"
fill="#000000" stroke="none">
<path d="M480 3622 c-34 -15 -35 -16 -10 -21 l25 -6 0 -1088 c0 -599 4 -1091
8 -1094 7 -4 3804 -7 3977 -4 l25 1 0 1090 0 1090 -30 1 c-16 0 -916 1 -1999
1 -1878 1 -1969 2 -1948 18 18 15 19 19 6 24 -9 3 -16 6 -17 5 -1 0 -18 -8
-37 -17z"/>
</g>
</svg>
